<?xml version="1.0" standalone="no"?>
<!DOCTYPE svg PUBLIC "-//W3C//DTD SVG 20010904//EN"
 "http://www.w3.org/TR/2001/REC-SVG-20010904/DTD/svg10.dtd">
<svg version="1.0" xmlns="http://www.w3.org/2000/svg"
 width="512.000000pt" height="512.000000pt" viewBox="0 0 512.000000 512.000000"
 preserveAspectRatio="xMidYMid meet">

<g transform="translate(0.000000,512.000000) scale(0.100000,-0.100000)"
fill="#000000" stroke="none">
<path d="M4432 4660 c-96 -25 -164 -63 -229 -128 -94 -94 -136 -203 -136 -357
0 -153 32 -240 129 -344 195 -211 569 -212 782 -3 191 187 187 507 -8 702 -33
33 -85 72 -117 88 -122 61 -285 77 -421 42z"/>
<path d="M1244 4510 c-12 -5 -27 -24 -33 -42 -80 -255 -1211 -3970 -1211
-3981 0 -7 8 -21 18 -30 17 -15 66 -17 504 -17 449 0 486 1 500 18 9 9 71 215
138 457 67 242 128 464 136 493 l15 52 526 -2 526 -3 149 -495 c91 -301 156
-500 166 -508 12 -9 131 -12 517 -12 493 0 502 0 520 20 17 19 18 26 7 66 -18
65 -1211 3914 -1224 3947 -6 15 -19 32 -29 37 -22 13 -1195 12 -1225 0z m657
-1235 c36 -133 284 -991 296 -1022 4 -10 -72 -13 -362 -13 -307 0 -366 2 -362
14 22 58 247 886 287 1057 28 117 53 225 56 239 5 20 10 10 26 -50 10 -41 37
-142 59 -225z"/>
<path d="M4112 3414 l-22 -15 0 -1469 c0 -1442 0 -1469 19 -1480 13 -6 183
-10 484 -10 437 0 465 1 480 18 16 17 17 134 17 1480 l0 1461 -22 15 c-20 14
-82 16 -478 16 -396 0 -458 -2 -478 -16z"/>
</g>
</svg>
