<svg width="48" height="39" viewBox="0 0 48 39" fill="none" xmlns="http://www.w3.org/2000/svg">
<g clip-path="url(#clip0_24_150)">
<path d="M9.96956 0C7.23075 0 5.20453 2.40753 5.29519 5.01835C5.38209 7.52631 5.26912 10.7751 4.45463 13.424C3.63769 16.0811 2.25656 17.7607 0 17.9765V20.4235C2.25647 20.6393 3.63769 22.3189 4.45463 24.976C5.26912 27.6249 5.38209 30.8737 5.29509 33.3817C5.20453 35.9925 7.23075 38.4 9.96956 38.4H38.0339C40.7727 38.4 42.7989 35.9925 42.7084 33.3817C42.6214 30.8737 42.7343 27.6249 43.5487 24.976C44.3658 22.3189 45.7435 20.6393 48 20.4235V17.9765C45.7435 17.7607 44.3658 16.0811 43.5487 13.424C42.7343 10.7751 42.6214 7.52631 42.7084 5.01835C42.7989 2.40753 40.7727 0 38.0339 0H9.96956ZM32.147 23.6331C32.147 27.2281 29.475 29.4077 25.0409 29.4077H16.8657C16.816 29.4077 16.7683 29.3879 16.7331 29.3526C16.698 29.3173 16.6782 29.2694 16.6782 29.2195V9.17242C16.6782 9.1225 16.698 9.07462 16.7331 9.03932C16.7683 9.00402 16.816 8.98419 16.8657 8.98419H24.9976C28.695 8.98419 31.1215 10.994 31.1215 14.0795C31.1215 16.245 29.4894 18.184 27.4096 18.5237V18.6369C30.2405 18.9483 32.147 20.9157 32.147 23.6331ZM24.2176 11.5743H19.9135V17.6744H23.5387C26.3407 17.6744 27.8862 16.5422 27.8862 14.5182C27.8862 12.6216 26.5574 11.5743 24.2176 11.5743ZM19.9135 20.0948V26.8177H24.3765C27.294 26.8177 28.8395 25.6429 28.8395 23.435C28.8395 21.227 27.2507 20.0948 24.1887 20.0948H19.9135Z" fill="#4E4E4E"/>
</g>
<defs>
<clipPath id="clip0_24_150">
<rect width="48" height="38.4" fill="white"/>
</clipPath>
</defs>
</svg>
