<?xml version="1.0" standalone="no"?>
<!DOCTYPE svg PUBLIC "-//W3C//DTD SVG 20010904//EN"
 "http://www.w3.org/TR/2001/REC-SVG-20010904/DTD/svg10.dtd">
<svg version="1.0" xmlns="http://www.w3.org/2000/svg" width="4096.000000pt" height="4096.000000pt" viewBox="0 0 4096.000000 4096.000000" preserveAspectRatio="xMidYMid meet">

<g transform="translate(0.000000,4096.000000) scale(0.100000,-0.100000)" fill="#000000" stroke="none">
<path d="M12740 29689 c-1093 -9 -1669 -25 -2275 -65 -194 -13 -255 -21 -315 -40 -88 -27 -167 -80 -192 -126 -17 -31 -18 -480 -18 -9020 0 -6444 3 -9001 11 -9038 13 -61 47 -104 97 -122 30 -10 295 -13 1382 -13 l1345 0 41 22 c29 16 48 36 63 66 l21 43 0 3241 0 3241 928 5 c952 5 1056 8 1492 52 1730 176 3173 790 4155 1770 828 826 1336 1898 1509 3186 52 387 61 539 61 1054 -1 570 -18 802 -91 1240 -170 1012 -534 1843 -1121 2555 -109 132 -436 460 -568 569 -968 801 -2222 1244 -3850 1361 -419 30 -932 33 -2675 19z m2208 -2659 c501 -36 938 -128 1317 -277 965 -381 1546 -1100 1735 -2147 70 -393 80 -945 24 -1391 -91 -725 -362 -1322 -799 -1761 -219 -220 -438 -378 -725 -523 -464-235 -974 -368 -1631 -426 -379 -33 -1544 -53 -1841 -31 l-108 8 0 3253 0 3253 123 6 c101 5 628 28 902 39 194 8 874 6 1003 -3z"/>
<path d="M27310 25080 c-518 -12 -822 -42 -1205 -116 -1644 -319 -2838 -1329 -3250 -2749 -200 -691 -203 -1528 -9 -2240 180 -656 550 -1234 1114 -1739 491 -439 1060 -806 1915 -1233 458 -230 1065 -584 1395 -816 520 -365 759 -668 826 -1047 22 -126 28 -301 15 -420 -71 -651 -538 -1034 -1401 -1145 -267 -35 -735 -30 -1100 11 -939 106 -1883 438 -2648 930 -110 72 -156 94 -190 94 -35 0 -78 -37 -89 -77 -4 -15 -8 -624 -8 -1353 0 -1258 1 -1327 18 -1372 31 -79 64 -99 399 -243 728 -314 1475 -498 2318 -572 230 -20 958 -22 1255 -4 1194 74 2176 398 2928 968 658 498 1108 1178 1317 1988 164 635 183 1432 50 2082 -194 945 -748 1711 -1740 2404 -405 283 -774 496 -1393 805 -410 205 -460 231 -722 379 -589 334 -945 583 -1200 840 -290 293 -398 542 -382 890 26 597 522 1038 1292 1149 249 36 705 47 1031 25 832 -56 1620 -286 2369 -693 43 -24 59 -27 117 -24 54 3 72 8 94 28 56 52 54 -13 54 1318 1 1222 0 1230 -20 1285 -23 60 -95 149 -140 172 -54 28 -478 165 -665 215 -784 209 -1433 281 -2345 260z"/>
</g>
</svg>
